<svg width="271" height="193" viewBox="0 0 271 193" fill="none" xmlns="http://www.w3.org/2000/svg">
<path opacity="0.78" fill-rule="evenodd" clip-rule="evenodd" d="M138.36 25.66C138.77 25.66 139.17 25.62 139.58 25.54C139.98 25.46 140.37 25.34 140.75 25.18C141.13 25.02 141.49 24.83 141.83 24.6C142.17 24.37 142.49 24.11 142.77 23.82C143.06 23.53 143.32 23.21 143.55 22.87C143.78 22.53 143.97 22.17 144.13 21.79C144.29 21.41 144.41 21.02 144.49 20.62C144.57 20.22 144.61 19.81 144.61 19.4C144.61 18.99 144.57 18.58 144.49 18.18C144.41 17.78 144.29 17.38 144.14 17C143.98 16.62 143.79 16.26 143.57 15.92C143.34 15.58 143.08 15.26 142.8 14.97C142.51 14.68 142.2 14.42 141.86 14.19C141.52 13.96 141.16 13.77 140.78 13.61C140.4 13.45 140.01 13.33 139.61 13.25C139.21 13.17 138.8 13.13 138.39 13.13C137.98 13.13 137.58 13.17 137.17 13.25C136.77 13.33 136.38 13.45 136 13.6C135.62 13.76 135.26 13.95 134.92 14.18C134.58 14.41 134.26 14.67 133.97 14.96C133.68 15.25 133.42 15.57 133.19 15.91C132.96 16.25 132.77 16.61 132.61 16.99C132.45 17.37 132.33 17.76 132.25 18.16C132.17 18.56 132.13 18.97 132.13 19.38C132.13 19.79 132.17 20.2 132.25 20.6C132.33 21 132.45 21.4 132.6 21.78C132.75 22.16 132.95 22.52 133.18 22.86C133.41 23.2 133.67 23.52 133.96 23.81C134.25 24.1 134.56 24.36 134.9 24.59C135.24 24.82 135.6 25.01 135.98 25.17C136.36 25.33 136.75 25.45 137.15 25.53C137.55 25.61 137.96 25.65 138.37 25.65L138.36 25.66Z" fill="#F9ED32"/>
<path opacity="0.78" fill-rule="evenodd" clip-rule="evenodd" d="M168.56 30.49C170.25 32.46 171.65 34.63 172.76 36.99C173.87 39.35 174.64 41.81 175.08 44.38C176.34 51.81 174.42 58.69 175.77 63.31C176.09 64.35 176.51 65.34 177.04 66.28C176.41 66.65 175.76 66.98 175.09 67.28C174.42 67.57 173.74 67.83 173.04 68.05C172.34 68.27 171.63 68.44 170.91 68.57C170.19 68.7 169.47 68.8 168.74 68.85C168.01 68.9 167.28 68.91 166.55 68.87C165.82 68.84 165.09 68.76 164.37 68.64C163.65 68.52 162.94 68.36 162.23 68.16C161.53 67.96 160.84 67.72 160.16 67.44C159.48 67.16 158.83 66.84 158.19 66.49C157.55 66.13 156.93 65.74 156.34 65.32C155.75 64.9 155.18 64.43 154.63 63.94C154.09 63.45 153.57 62.92 153.09 62.37C152.61 61.82 152.16 61.24 151.74 60.64C151.32 60.04 150.94 59.41 150.6 58.76C150.25 58.11 149.95 57.45 149.68 56.76C149.41 56.08 149.18 55.38 148.99 54.67C148.8 53.96 148.65 53.24 148.54 52.51C148.43 51.78 148.37 51.05 148.34 50.32C148.32 49.59 148.34 48.85 148.39 48.12C148.45 47.39 148.55 46.66 148.69 45.94C148.83 45.22 149.01 44.51 149.24 43.81C149.46 43.11 149.73 42.42 150.03 41.75C150.33 41.08 150.67 40.43 151.05 39.8C151.43 39.17 151.84 38.56 152.28 37.98C152.73 37.4 153.2 36.84 153.71 36.31C154.22 35.78 154.76 35.28 155.32 34.82C155.89 34.35 156.48 33.92 157.09 33.52C157.7 33.12 158.34 32.76 159 32.44C159.66 32.12 160.33 31.83 161.02 31.58C161.71 31.33 162.41 31.13 163.12 30.96C163.83 30.79 164.55 30.67 165.28 30.59C166.01 30.51 166.74 30.47 167.47 30.47C167.83 30.47 168.21 30.48 168.59 30.5L168.56 30.49Z" fill="#662D91"/>
<path opacity="0.78" fill-rule="evenodd" clip-rule="evenodd" d="M175.46 47.65C175.86 53.8 174.62 59.38 175.78 63.33C177.75 70.08 186.49 76.19 182.41 79.67C181.12 80.71 178.9 80.78 177.59 81.8C175.51 83.43 176.93 85.19 177.12 86.46C177.21 87.06 176.66 88.03 174.87 89.21C176.23 90.21 176.1 91.07 175.62 91.85C174.96 92.31 174.28 92.73 173.58 93.12C172.88 93.51 172.17 93.87 171.43 94.2C170.7 94.53 169.95 94.82 169.2 95.08C168.44 95.34 167.67 95.57 166.9 95.76C166.12 95.95 165.34 96.11 164.54 96.23C163.75 96.35 162.95 96.43 162.15 96.48C161.35 96.53 160.55 96.54 159.75 96.51C158.95 96.48 158.15 96.42 157.36 96.33C156.56 96.23 155.78 96.1 154.99 95.93C154.21 95.76 153.43 95.56 152.67 95.32C151.91 95.08 151.15 94.81 150.41 94.5C149.67 94.19 148.95 93.85 148.24 93.48C147.53 93.11 146.84 92.7 146.17 92.26C145.5 91.82 144.85 91.36 144.21 90.86C143.57 90.36 142.97 89.84 142.39 89.29C141.81 88.74 141.25 88.16 140.72 87.56C140.19 86.96 139.68 86.33 139.21 85.68C138.73 85.03 138.29 84.36 137.87 83.68C137.45 82.99 137.07 82.29 136.72 81.56C136.37 80.84 136.05 80.1 135.76 79.35C135.47 78.6 135.22 77.83 135.01 77.06C134.79 76.28 134.61 75.5 134.46 74.71C134.31 73.92 134.2 73.12 134.13 72.32C134.06 71.52 134.02 70.71 134.01 69.91C134.01 69.1 134.04 68.3 134.11 67.5C134.18 66.7 134.29 65.9 134.43 65.11C134.57 64.32 134.75 63.53 134.96 62.76C135.17 61.98 135.42 61.22 135.7 60.46C135.98 59.71 136.29 58.97 136.64 58.24C136.99 57.51 137.37 56.81 137.78 56.11C138.19 55.42 138.63 54.75 139.1 54.1C139.57 53.45 140.07 52.82 140.6 52.21C141.13 51.6 141.68 51.02 142.26 50.47C142.84 49.91 143.44 49.39 144.07 48.89C144.7 48.39 145.35 47.92 146.02 47.48C146.69 47.04 147.38 46.63 148.08 46.25C148.79 45.87 149.51 45.52 150.25 45.21C150.99 44.9 151.74 44.62 152.5 44.37C153.26 44.12 154.04 43.91 154.82 43.74C155.6 43.57 156.39 43.43 157.18 43.32C157.97 43.22 158.77 43.15 159.57 43.12C160.37 43.09 161.17 43.09 161.97 43.14C162.77 43.19 163.57 43.26 164.36 43.37C165.15 43.48 165.94 43.63 166.72 43.82C167.5 44.01 168.27 44.23 169.03 44.48C169.79 44.74 170.54 45.03 171.27 45.35C172 45.67 172.72 46.03 173.42 46.42C174.12 46.81 174.8 47.23 175.47 47.68V47.66L175.46 47.65Z" fill="#92278F"/>
<path opacity="0.78" fill-rule="evenodd" clip-rule="evenodd" d="M169.77 106.69C159.67 110.82 146.16 96.96 144.34 125.23C137.78 120.9 130.82 117.34 123.47 114.55C123.17 114.1 122.88 113.65 122.6 113.18C122.33 112.71 122.07 112.24 121.82 111.76C121.58 111.28 121.35 110.79 121.13 110.29C120.91 109.79 120.72 109.29 120.53 108.78C120.35 108.27 120.18 107.76 120.03 107.24C119.88 106.72 119.74 106.2 119.63 105.67C119.51 105.14 119.41 104.61 119.32 104.08C119.23 103.55 119.17 103.01 119.11 102.47C119.05 101.93 119.02 101.39 119 100.85C118.98 100.31 118.98 99.77 119 99.23C119.02 98.69 119.05 98.15 119.1 97.61C119.15 97.07 119.21 96.53 119.3 96C119.38 95.47 119.48 94.93 119.6 94.4C119.72 93.87 119.85 93.35 119.99 92.83C120.14 92.31 120.3 91.79 120.48 91.28C120.66 90.77 120.86 90.27 121.07 89.77C121.28 89.27 121.51 88.78 121.75 88.3C121.99 87.82 122.25 87.34 122.52 86.87C122.79 86.4 123.08 85.94 123.38 85.49C123.68 85.04 123.99 84.6 124.32 84.17C124.65 83.74 124.99 83.32 125.34 82.91C125.69 82.5 126.06 82.1 126.44 81.72C126.82 81.33 127.21 80.96 127.61 80.6C128.01 80.24 128.42 79.89 128.85 79.56C129.27 79.22 129.71 78.9 130.15 78.6C130.59 78.29 131.04 78 131.51 77.72C131.97 77.44 132.44 77.18 132.92 76.93C133.4 76.68 133.88 76.45 134.37 76.23C134.86 76.01 135.36 75.81 135.87 75.62C136.37 75.43 136.89 75.26 137.4 75.1C137.92 74.94 138.44 74.8 138.96 74.68C139.48 74.56 140.01 74.45 140.54 74.36C141.07 74.27 141.6 74.2 142.14 74.14C142.68 74.08 143.21 74.04 143.75 74.02C144.29 74 144.83 73.99 145.36 74C145.9 74.01 146.44 74.04 146.97 74.08C147.51 74.12 148.04 74.19 148.57 74.26C149.1 74.34 149.63 74.43 150.16 74.54C150.69 74.65 151.21 74.78 151.73 74.92C152.25 75.06 152.76 75.23 153.27 75.4C153.78 75.58 154.28 75.77 154.78 75.98C155.28 76.19 155.77 76.41 156.25 76.65C156.73 76.89 157.21 77.14 157.68 77.41C158.15 77.68 158.61 77.96 159.05 78.26C159.5 78.56 159.94 78.87 160.37 79.2C160.8 79.53 161.22 79.86 161.63 80.22C162.04 80.57 162.44 80.94 162.82 81.31C163.21 81.69 163.58 82.08 163.94 82.48C164.3 82.88 164.65 83.29 164.99 83.71C165.33 84.13 165.65 84.57 165.96 85.01C166.27 85.45 166.57 85.9 166.85 86.37C167.13 86.83 167.4 87.3 167.65 87.78C167.9 88.26 168.14 88.74 168.36 89.24C168.58 89.73 168.79 90.23 168.98 90.74C169.17 91.25 169.35 91.76 169.51 92.27C169.67 92.79 169.81 93.31 169.94 93.83C170.07 94.36 170.18 94.89 170.27 95.42C170.36 95.95 170.44 96.49 170.5 97.03C170.56 97.57 170.6 98.11 170.63 98.65C170.66 99.19 170.67 99.73 170.66 100.27C170.65 100.81 170.63 101.35 170.59 101.89C170.55 102.43 170.49 102.97 170.42 103.5C170.35 104.04 170.26 104.57 170.15 105.1C170.04 105.63 169.92 106.16 169.78 106.68L169.77 106.69Z" fill="#007FC6"/>
<path opacity="0.78" fill-rule="evenodd" clip-rule="evenodd" d="M154.94 106.84C149.61 107.07 145.3 110.15 144.33 125.24C137.8 120.93 130.89 117.39 123.59 114.61C123.61 113.69 123.71 112.78 123.88 111.88C124.05 110.98 124.29 110.1 124.6 109.24C124.91 108.38 125.29 107.55 125.74 106.75C126.19 105.95 126.7 105.19 127.27 104.48C127.84 103.77 128.47 103.1 129.15 102.49C129.83 101.88 130.55 101.33 131.32 100.83C132.09 100.34 132.89 99.91 133.73 99.55C134.57 99.19 135.43 98.9 136.32 98.68C137.21 98.46 138.1 98.32 139.01 98.24C139.92 98.17 140.83 98.17 141.74 98.24C142.65 98.32 143.55 98.47 144.43 98.69C145.31 98.92 146.17 99.21 147.01 99.58C147.85 99.95 148.65 100.38 149.41 100.88C150.18 101.38 150.9 101.94 151.57 102.55C152.24 103.16 152.87 103.83 153.43 104.55C154 105.27 154.5 106.03 154.94 106.83V106.84Z" fill="#01A6E6"/>
<path opacity="0.78" fill-rule="evenodd" clip-rule="evenodd" d="M179.34 80.93C178.71 81.11 178.12 81.4 177.58 81.78C175.5 83.41 176.92 85.17 177.11 86.44C177.2 87.04 176.65 88.01 174.86 89.19C176.94 90.73 175.54 91.91 174.7 93.04C170.82 95.85 176.22 101.95 169.81 106.68C163.34 109.36 155.48 104.63 150.17 108.26C150.09 107.77 150.02 107.28 149.96 106.79C149.91 106.3 149.87 105.8 149.84 105.31C149.82 104.82 149.81 104.32 149.82 103.83C149.82 103.34 149.85 102.84 149.89 102.35C149.93 101.86 149.98 101.36 150.05 100.87C150.12 100.38 150.2 99.89 150.3 99.41C150.4 98.92 150.51 98.44 150.64 97.97C150.77 97.49 150.91 97.02 151.07 96.55C151.23 96.08 151.4 95.62 151.58 95.16C151.77 94.7 151.96 94.25 152.18 93.8C152.39 93.35 152.62 92.91 152.86 92.48C153.1 92.05 153.35 91.62 153.62 91.21C153.89 90.79 154.17 90.39 154.46 89.99C154.75 89.59 155.06 89.2 155.37 88.82C155.69 88.44 156.01 88.07 156.35 87.71C156.69 87.35 157.04 87 157.4 86.66C157.76 86.32 158.13 86 158.51 85.68C158.89 85.37 159.28 85.06 159.68 84.77C160.08 84.48 160.49 84.2 160.9 83.94C161.32 83.68 161.74 83.42 162.17 83.19C162.6 82.95 163.04 82.73 163.49 82.52C163.94 82.31 164.39 82.11 164.84 81.93C165.3 81.75 165.76 81.58 166.23 81.42C166.7 81.27 167.17 81.13 167.65 81C168.13 80.87 168.61 80.77 169.09 80.67C169.57 80.58 170.06 80.5 170.55 80.43C171.04 80.37 171.53 80.32 172.02 80.28C172.51 80.25 173 80.23 173.5 80.22C174 80.21 174.48 80.22 174.98 80.26C175.47 80.29 175.96 80.33 176.45 80.39C176.94 80.45 177.43 80.52 177.91 80.61C178.39 80.7 178.88 80.8 179.35 80.92L179.34 80.93Z" fill="#2063B2"/>
<path opacity="0.78" fill-rule="evenodd" clip-rule="evenodd" d="M104.25 81.23C104.86 81.23 105.46 81.17 106.05 81.05C106.64 80.93 107.22 80.76 107.78 80.52C108.34 80.29 108.87 80 109.38 79.66C109.88 79.32 110.35 78.94 110.78 78.51C111.21 78.08 111.59 77.61 111.93 77.1C112.27 76.59 112.55 76.06 112.78 75.5C113.01 74.94 113.19 74.36 113.31 73.76C113.43 73.16 113.49 72.56 113.49 71.95C113.49 71.34 113.43 70.74 113.31 70.14C113.19 69.54 113.02 68.96 112.78 68.4C112.55 67.84 112.26 67.3 111.93 66.79C111.59 66.28 111.21 65.81 110.78 65.38C110.35 64.95 109.88 64.56 109.38 64.23C108.88 63.9 108.34 63.61 107.78 63.37C107.22 63.14 106.64 62.96 106.05 62.84C105.46 62.72 104.85 62.66 104.25 62.66C103.65 62.66 103.04 62.72 102.45 62.84C101.86 62.96 101.28 63.14 100.72 63.37C100.16 63.6 99.63 63.89 99.12 64.23C98.62 64.57 98.15 64.95 97.72 65.38C97.29 65.81 96.91 66.28 96.57 66.79C96.23 67.3 95.95 67.83 95.72 68.4C95.49 68.96 95.31 69.54 95.2 70.14C95.08 70.74 95.02 71.34 95.02 71.95C95.02 72.56 95.08 73.16 95.2 73.76C95.32 74.36 95.49 74.94 95.73 75.5C95.96 76.06 96.25 76.6 96.58 77.1C96.92 77.61 97.3 78.07 97.73 78.5C98.16 78.93 98.62 79.32 99.13 79.65C99.63 79.99 100.16 80.27 100.72 80.51C101.28 80.74 101.86 80.92 102.45 81.04C103.04 81.16 103.64 81.22 104.25 81.22V81.23Z" fill="#12BCBC"/>
<path opacity="0.78" fill-rule="evenodd" clip-rule="evenodd" d="M123.59 94.15C124.14 94.15 124.69 94.1 125.23 93.99C125.77 93.88 126.3 93.72 126.81 93.51C127.32 93.3 127.81 93.04 128.27 92.73C128.73 92.42 129.16 92.07 129.55 91.68C129.94 91.29 130.29 90.86 130.6 90.4C130.91 89.94 131.17 89.45 131.38 88.94C131.59 88.43 131.75 87.9 131.86 87.35C131.97 86.8 132.02 86.25 132.03 85.7C132.03 85.14 131.98 84.59 131.87 84.05C131.76 83.5 131.6 82.97 131.39 82.46C131.18 81.95 130.92 81.46 130.61 80.99C130.3 80.53 129.95 80.1 129.56 79.7C129.17 79.31 128.74 78.95 128.28 78.64C127.82 78.33 127.34 78.07 126.82 77.86C126.31 77.65 125.78 77.49 125.24 77.38C124.7 77.27 124.15 77.22 123.6 77.22C123.05 77.22 122.5 77.27 121.96 77.38C121.42 77.49 120.89 77.65 120.38 77.86C119.87 78.07 119.38 78.33 118.92 78.64C118.46 78.95 118.03 79.3 117.64 79.69C117.25 80.08 116.9 80.51 116.59 80.97C116.28 81.43 116.02 81.92 115.81 82.43C115.6 82.94 115.44 83.47 115.33 84.02C115.22 84.57 115.17 85.12 115.17 85.67C115.17 86.22 115.23 86.77 115.33 87.32C115.44 87.86 115.6 88.39 115.81 88.9C116.02 89.41 116.28 89.9 116.59 90.36C116.9 90.82 117.24 91.25 117.63 91.64C118.02 92.03 118.44 92.38 118.9 92.69C119.36 93 119.84 93.26 120.35 93.47C120.86 93.68 121.38 93.85 121.92 93.96C122.46 94.07 123.01 94.13 123.56 94.13L123.59 94.15Z" fill="#00B9F1"/>
<path opacity="0.78" fill-rule="evenodd" clip-rule="evenodd" d="M102.92 58.64C103.34 58.64 103.77 58.6 104.18 58.51C104.59 58.42 105 58.3 105.39 58.14C105.78 57.98 106.16 57.78 106.51 57.54C106.86 57.3 107.19 57.03 107.49 56.73C107.79 56.43 108.06 56.1 108.29 55.74C108.53 55.38 108.73 55.01 108.89 54.62C109.05 54.23 109.18 53.82 109.26 53.4C109.34 52.98 109.38 52.56 109.38 52.13C109.38 51.7 109.34 51.28 109.26 50.86C109.18 50.44 109.05 50.03 108.89 49.64C108.73 49.25 108.53 48.87 108.29 48.52C108.05 48.16 107.79 47.84 107.49 47.53C107.19 47.23 106.86 46.96 106.51 46.72C106.16 46.48 105.78 46.28 105.39 46.12C105 45.96 104.59 45.83 104.18 45.75C103.76 45.67 103.34 45.63 102.92 45.63C102.5 45.63 102.07 45.67 101.66 45.76C101.24 45.84 100.84 45.97 100.45 46.13C100.06 46.29 99.68 46.49 99.33 46.73C98.98 46.97 98.65 47.24 98.35 47.54C98.05 47.84 97.78 48.17 97.55 48.53C97.31 48.89 97.12 49.26 96.95 49.65C96.79 50.04 96.67 50.45 96.58 50.87C96.5 51.29 96.46 51.71 96.46 52.14C96.46 52.57 96.5 52.99 96.59 53.41C96.68 53.83 96.8 54.23 96.96 54.63C97.12 55.02 97.32 55.4 97.56 55.75C97.8 56.1 98.06 56.43 98.36 56.73C98.66 57.03 98.99 57.3 99.34 57.54C99.69 57.78 100.07 57.98 100.46 58.14C100.85 58.3 101.26 58.43 101.67 58.51C102.08 58.59 102.51 58.64 102.93 58.64H102.92Z" fill="#8DC63F"/>
<path opacity="0.78" d="M99.7 35.98C99.7 36.35 99.66 36.72 99.59 37.08C99.52 37.44 99.41 37.79 99.27 38.14C99.13 38.48 98.96 38.81 98.75 39.11C98.55 39.42 98.31 39.7 98.05 39.96C97.79 40.22 97.51 40.45 97.2 40.66C96.89 40.87 96.57 41.04 96.23 41.18C95.89 41.32 95.54 41.43 95.18 41.5C94.82 41.57 94.45 41.61 94.09 41.61C93.73 41.61 93.36 41.57 93 41.5C92.64 41.43 92.29 41.32 91.95 41.18C91.61 41.04 91.29 40.87 90.98 40.66C90.67 40.45 90.39 40.22 90.13 39.96C89.87 39.7 89.64 39.41 89.43 39.11C89.23 38.8 89.05 38.48 88.91 38.14C88.77 37.8 88.66 37.45 88.59 37.08C88.52 36.72 88.48 36.35 88.48 35.98C88.48 35.61 88.52 35.24 88.59 34.88C88.66 34.52 88.77 34.17 88.91 33.82C89.05 33.48 89.22 33.15 89.43 32.85C89.64 32.55 89.87 32.26 90.13 32C90.39 31.74 90.67 31.51 90.98 31.3C91.29 31.09 91.61 30.92 91.95 30.78C92.29 30.64 92.64 30.53 93 30.46C93.36 30.39 93.73 30.35 94.09 30.35C94.45 30.35 94.82 30.39 95.18 30.46C95.54 30.53 95.89 30.64 96.23 30.78C96.57 30.92 96.89 31.09 97.2 31.3C97.51 31.51 97.79 31.74 98.05 32C98.31 32.26 98.54 32.55 98.75 32.85C98.95 33.16 99.13 33.48 99.27 33.82C99.41 34.16 99.52 34.51 99.59 34.88C99.66 35.24 99.7 35.61 99.7 35.98Z" fill="#FFD900"/>
<path opacity="0.78" fill-rule="evenodd" clip-rule="evenodd" d="M105.93 25.66C106.27 25.66 106.61 25.63 106.95 25.56C107.29 25.49 107.61 25.39 107.93 25.26C108.25 25.13 108.55 24.97 108.83 24.77C109.12 24.58 109.38 24.36 109.62 24.12C109.86 23.88 110.08 23.61 110.27 23.32C110.46 23.03 110.62 22.73 110.75 22.41C110.88 22.09 110.98 21.76 111.05 21.42C111.12 21.08 111.15 20.74 111.15 20.39C111.15 20.04 111.12 19.7 111.05 19.36C110.98 19.02 110.88 18.69 110.75 18.37C110.62 18.05 110.46 17.75 110.27 17.46C110.08 17.17 109.86 16.91 109.62 16.66C109.38 16.41 109.11 16.2 108.83 16.01C108.54 15.82 108.24 15.66 107.93 15.52C107.61 15.39 107.29 15.29 106.95 15.22C106.61 15.15 106.27 15.12 105.93 15.12C105.59 15.12 105.25 15.15 104.91 15.22C104.57 15.29 104.25 15.39 103.93 15.52C103.61 15.65 103.31 15.81 103.03 16.01C102.74 16.2 102.48 16.42 102.24 16.66C102 16.9 101.78 17.17 101.59 17.46C101.4 17.75 101.24 18.05 101.11 18.37C100.98 18.69 100.88 19.02 100.81 19.36C100.74 19.7 100.71 20.04 100.71 20.39C100.71 20.73 100.74 21.08 100.81 21.41C100.88 21.74 100.98 22.08 101.11 22.4C101.24 22.72 101.4 23.02 101.59 23.31C101.78 23.6 102 23.86 102.24 24.11C102.48 24.35 102.75 24.57 103.03 24.76C103.32 24.95 103.62 25.11 103.93 25.25C104.24 25.39 104.57 25.48 104.91 25.55C105.25 25.62 105.59 25.65 105.93 25.65V25.66Z" fill="#009444"/>
<path opacity="0.78" fill-rule="evenodd" clip-rule="evenodd" d="M107.71 38.77C108.17 38.77 108.61 38.68 109.03 38.51C109.45 38.33 109.83 38.08 110.15 37.76C110.47 37.43 110.72 37.06 110.9 36.63C111.08 36.2 111.16 35.76 111.16 35.3C111.16 34.84 111.07 34.4 110.9 33.97C110.72 33.54 110.48 33.17 110.15 32.84C109.83 32.51 109.45 32.26 109.03 32.09C108.61 31.91 108.17 31.83 107.71 31.83C107.25 31.83 106.81 31.92 106.39 32.09C105.97 32.27 105.59 32.52 105.27 32.84C104.95 33.17 104.7 33.54 104.52 33.97C104.34 34.4 104.26 34.84 104.26 35.3C104.26 35.76 104.35 36.2 104.53 36.63C104.71 37.06 104.96 37.43 105.28 37.76C105.6 38.09 105.98 38.34 106.4 38.51C106.82 38.69 107.26 38.78 107.72 38.78L107.71 38.77Z" fill="#56BA48"/>
<path opacity="0.78" fill-rule="evenodd" clip-rule="evenodd" d="M114.91 16.68C115.37 16.68 115.81 16.59 116.23 16.42C116.65 16.24 117.03 15.99 117.35 15.67C117.67 15.34 117.92 14.97 118.1 14.54C118.28 14.11 118.36 13.67 118.36 13.21C118.36 12.75 118.27 12.31 118.1 11.88C117.92 11.45 117.68 11.08 117.35 10.75C117.03 10.42 116.65 10.17 116.23 10C115.81 9.82 115.37 9.74 114.91 9.74C114.45 9.74 114.01 9.83 113.59 10C113.17 10.18 112.79 10.43 112.47 10.75C112.15 11.08 111.9 11.45 111.72 11.88C111.54 12.31 111.46 12.75 111.46 13.21C111.46 13.67 111.55 14.11 111.73 14.54C111.91 14.96 112.16 15.34 112.48 15.67C112.8 16 113.18 16.25 113.6 16.42C114.02 16.6 114.46 16.69 114.92 16.69L114.91 16.68Z" fill="#FBAD17"/>
<path opacity="0.78" fill-rule="evenodd" clip-rule="evenodd" d="M93.69 24.42C94.04 24.42 94.37 24.35 94.69 24.22C95.01 24.09 95.29 23.89 95.54 23.65C95.78 23.4 95.97 23.12 96.1 22.8C96.23 22.48 96.3 22.14 96.3 21.79C96.3 21.44 96.23 21.11 96.1 20.79C95.97 20.47 95.78 20.19 95.53 19.94C95.28 19.69 95 19.51 94.68 19.37C94.36 19.24 94.03 19.17 93.68 19.17C93.33 19.17 93 19.24 92.68 19.37C92.36 19.5 92.08 19.69 91.83 19.94C91.59 20.19 91.4 20.47 91.26 20.79C91.13 21.11 91.06 21.45 91.06 21.8C91.06 22.15 91.13 22.49 91.26 22.81C91.39 23.13 91.58 23.42 91.83 23.66C92.08 23.9 92.36 24.1 92.68 24.23C93 24.36 93.34 24.43 93.68 24.43L93.69 24.42Z" fill="#F15C22"/>
<path opacity="0.78" d="M155.85 51.24C155.85 51.96 155.81 52.68 155.74 53.39C155.67 54.11 155.56 54.82 155.43 55.52C155.29 56.23 155.12 56.92 154.91 57.61C154.7 58.3 154.46 58.98 154.19 59.64C153.92 60.3 153.61 60.95 153.27 61.59C152.93 62.22 152.57 62.84 152.17 63.44C151.77 64.04 151.35 64.62 150.89 65.17C150.43 65.72 149.96 66.26 149.45 66.77C148.94 67.28 148.41 67.76 147.86 68.22C147.31 68.68 146.73 69.1 146.14 69.5C145.54 69.9 144.93 70.27 144.3 70.61C143.67 70.95 143.02 71.26 142.36 71.53C141.7 71.81 141.03 72.05 140.34 72.26C139.66 72.47 138.96 72.64 138.26 72.78C137.56 72.92 136.85 73.03 136.14 73.1C135.43 73.17 134.71 73.21 134 73.21C133.29 73.21 132.57 73.17 131.86 73.1C131.15 73.03 130.44 72.92 129.74 72.78C129.04 72.64 128.34 72.47 127.66 72.26C126.98 72.05 126.3 71.81 125.64 71.53C124.98 71.25 124.33 70.95 123.7 70.61C123.07 70.27 122.46 69.9 121.86 69.5C121.26 69.1 120.69 68.67 120.14 68.22C119.59 67.76 119.06 67.28 118.55 66.77C118.04 66.26 117.56 65.73 117.11 65.17C116.66 64.61 116.23 64.04 115.83 63.44C115.43 62.84 115.06 62.23 114.73 61.59C114.39 60.96 114.09 60.31 113.81 59.64C113.54 58.98 113.3 58.3 113.09 57.61C112.88 56.92 112.71 56.22 112.57 55.52C112.43 54.82 112.33 54.1 112.26 53.39C112.19 52.67 112.15 51.96 112.15 51.24C112.15 50.52 112.19 49.8 112.26 49.09C112.33 48.37 112.44 47.66 112.57 46.96C112.7 46.26 112.88 45.56 113.09 44.87C113.3 44.18 113.54 43.5 113.81 42.84C114.08 42.18 114.39 41.53 114.73 40.89C115.07 40.26 115.43 39.64 115.83 39.04C116.23 38.44 116.65 37.86 117.11 37.31C117.56 36.75 118.04 36.22 118.55 35.71C119.06 35.2 119.59 34.72 120.14 34.26C120.69 33.8 121.27 33.38 121.86 32.98C122.45 32.58 123.07 32.21 123.7 31.87C124.33 31.53 124.98 31.22 125.64 30.95C126.3 30.67 126.97 30.43 127.66 30.22C128.34 30.01 129.04 29.84 129.74 29.7C130.44 29.56 131.15 29.45 131.86 29.38C132.57 29.31 133.29 29.27 134 29.27C134.71 29.27 135.43 29.31 136.14 29.38C136.85 29.45 137.56 29.56 138.26 29.7C138.96 29.84 139.66 30.01 140.34 30.22C141.02 30.43 141.7 30.67 142.36 30.95C143.02 31.23 143.67 31.53 144.3 31.87C144.93 32.21 145.54 32.58 146.14 32.98C146.74 33.38 147.31 33.81 147.86 34.26C148.41 34.71 148.94 35.2 149.45 35.71C149.96 36.22 150.44 36.75 150.89 37.31C151.34 37.87 151.77 38.44 152.17 39.04C152.57 39.64 152.94 40.25 153.27 40.89C153.61 41.52 153.91 42.17 154.19 42.84C154.46 43.5 154.7 44.18 154.91 44.87C155.12 45.56 155.29 46.26 155.43 46.96C155.57 47.67 155.67 48.38 155.74 49.09C155.81 49.81 155.85 50.52 155.85 51.24Z" fill="#FBAD17"/>
<path opacity="0.78" fill-rule="evenodd" clip-rule="evenodd" d="M146.07 17.99C156.54 20.16 165.32 25.43 170.49 33.02C170.4 33.66 170.27 34.3 170.11 34.93C169.94 35.56 169.74 36.17 169.49 36.77C169.25 37.37 168.97 37.96 168.65 38.52C168.33 39.08 167.99 39.63 167.6 40.15C167.22 40.67 166.8 41.17 166.36 41.64C165.92 42.11 165.45 42.55 164.95 42.97C164.45 43.38 163.93 43.76 163.38 44.11C162.83 44.46 162.27 44.77 161.69 45.05C161.11 45.33 160.51 45.57 159.89 45.77C159.28 45.97 158.65 46.14 158.02 46.26C157.39 46.39 156.75 46.47 156.1 46.52C155.46 46.57 154.81 46.57 154.17 46.54C153.53 46.51 152.88 46.43 152.25 46.32C151.61 46.21 150.99 46.05 150.37 45.86C149.75 45.67 149.15 45.44 148.56 45.17C147.97 44.9 147.4 44.6 146.85 44.26C146.3 43.92 145.77 43.55 145.27 43.14C144.77 42.74 144.29 42.3 143.84 41.84C143.39 41.38 142.97 40.88 142.58 40.37C142.19 39.85 141.83 39.31 141.51 38.75C141.19 38.19 140.9 37.61 140.64 37.01C140.39 36.41 140.17 35.8 139.99 35.18C139.81 34.56 139.67 33.92 139.58 33.28C139.48 32.64 139.42 31.99 139.4 31.34C139.38 30.69 139.4 30.04 139.46 29.4C139.52 28.75 139.62 28.11 139.76 27.48C139.9 26.85 140.08 26.22 140.29 25.61C140.51 25 140.76 24.4 141.05 23.82C141.34 23.24 141.66 22.68 142.02 22.14C142.38 21.6 142.77 21.08 143.19 20.59C143.61 20.1 144.06 19.64 144.54 19.2C145.02 18.77 145.52 18.36 146.05 17.99H146.07Z" fill="#EC008B"/>
<path opacity="0.78" fill-rule="evenodd" clip-rule="evenodd" d="M126.64 41.62C127.5 41.62 128.35 41.54 129.19 41.37C130.03 41.2 130.85 40.95 131.65 40.62C132.44 40.29 133.2 39.88 133.91 39.4C134.62 38.92 135.29 38.37 135.89 37.76C136.5 37.15 137.04 36.48 137.52 35.77C138 35.05 138.4 34.29 138.73 33.5C139.06 32.71 139.31 31.88 139.48 31.03C139.65 30.18 139.73 29.33 139.73 28.46C139.73 27.6 139.65 26.74 139.48 25.89C139.31 25.04 139.06 24.22 138.74 23.42C138.41 22.62 138.01 21.86 137.53 21.14C137.05 20.42 136.51 19.76 135.9 19.15C135.29 18.54 134.63 17.99 133.92 17.51C133.21 17.03 132.45 16.62 131.66 16.29C130.87 15.96 130.05 15.71 129.2 15.54C128.36 15.37 127.51 15.29 126.65 15.29C125.79 15.29 124.94 15.37 124.1 15.54C123.26 15.71 122.44 15.96 121.64 16.29C120.84 16.62 120.09 17.03 119.38 17.51C118.67 17.99 118 18.54 117.4 19.15C116.79 19.76 116.25 20.43 115.77 21.14C115.29 21.86 114.89 22.62 114.56 23.41C114.23 24.21 113.98 25.03 113.82 25.88C113.65 26.73 113.57 27.58 113.57 28.45C113.57 29.31 113.66 30.17 113.83 31.01C114 31.86 114.25 32.68 114.58 33.48C114.91 34.28 115.31 35.03 115.79 35.75C116.27 36.47 116.81 37.13 117.42 37.74C118.03 38.35 118.69 38.9 119.4 39.38C120.11 39.86 120.87 40.27 121.66 40.6C122.45 40.93 123.27 41.18 124.11 41.35C124.95 41.52 125.8 41.61 126.66 41.61L126.64 41.62Z" fill="#56BA48"/>
<path d="M78.84 155.63V166.39H73.39V156.47C73.39 153.43 72.03 152.03 69.83 152.03C67.38 152.03 65.67 153.6 65.67 156.96V166.39H60.22V156.47C60.22 153.43 58.93 152.03 56.66 152.03C54.25 152.03 52.54 153.6 52.54 156.96V166.39H47.09V147.59H52.3V149.76C53.7 148.15 55.8 147.31 58.21 147.31C60.83 147.31 63.07 148.32 64.4 150.39C65.9 148.47 68.35 147.31 71.18 147.31C75.65 147.31 78.87 149.9 78.87 155.63H78.84Z" fill="white"/>
<path d="M103.81 158.53H89.59C90.11 160.87 92.11 162.3 94.97 162.3C96.96 162.3 98.39 161.71 99.69 160.48L102.59 163.62C100.84 165.61 98.22 166.66 94.83 166.66C88.33 166.66 84.1 162.57 84.1 156.98C84.1 151.39 88.4 147.3 94.13 147.3C99.86 147.3 103.91 151 103.91 157.05C103.91 157.47 103.84 158.06 103.81 158.52V158.53ZM89.52 155.35H98.78C98.4 152.97 96.61 151.44 94.17 151.44C91.73 151.44 89.91 152.94 89.52 155.35Z" fill="white"/>
<path d="M121.45 165.48C120.33 166.28 118.69 166.67 117.01 166.67C112.57 166.67 109.99 164.4 109.99 159.93V152.21H107.09V148.02H109.99V143.44H115.44V148.02H120.12V152.21H115.44V159.86C115.44 161.47 116.31 162.34 117.78 162.34C118.58 162.34 119.39 162.1 119.98 161.64L121.45 165.48Z" fill="white"/>
<path d="M142.94 155.66V166.39H137.84V164.05C136.83 165.76 134.87 166.67 132.11 166.67C127.71 166.67 125.09 164.22 125.09 160.97C125.09 157.72 127.43 155.34 133.16 155.34H137.49C137.49 153 136.09 151.64 133.16 151.64C131.17 151.64 129.11 152.3 127.74 153.39L125.78 149.58C127.84 148.11 130.88 147.31 133.89 147.31C139.62 147.31 142.94 149.97 142.94 155.66ZM137.49 160.45V158.53H133.75C131.2 158.53 130.4 159.47 130.4 160.73C130.4 162.09 131.55 163 133.48 163C135.3 163 136.87 162.16 137.5 160.45H137.49Z" fill="white"/>
<path d="M172.46 141.93V166.39H166.8V156.36H155.69V166.39H150.03V141.93H155.69V151.57H166.8V141.93H172.46Z" fill="white"/>
<path d="M195.61 166.39L190.89 159.58H185.68V166.39H180.02V141.93H190.61C197.14 141.93 201.23 145.32 201.23 150.81C201.23 154.48 199.38 157.17 196.2 158.53L201.69 166.39H195.61ZM190.3 146.54H185.69V155.07H190.3C193.76 155.07 195.51 153.46 195.51 150.81C195.51 148.16 193.76 146.55 190.3 146.55V146.54Z" fill="white"/>
<path d="M206.44 141.93C206.44 140.22 207.8 138.89 209.83 138.89C211.86 138.89 213.22 140.15 213.22 141.83C213.22 143.65 211.86 144.97 209.83 144.97C207.8 144.97 206.44 143.64 206.44 141.93ZM207.1 147.59H212.55V166.39H207.1V147.59Z" fill="white"/>
<path d="M217.58 164.64L219.4 160.73C221.08 161.81 223.63 162.55 225.93 162.55C228.45 162.55 229.39 161.89 229.39 160.84C229.39 157.76 218.03 160.91 218.03 153.4C218.03 149.84 221.24 147.32 226.73 147.32C229.32 147.32 232.18 147.91 233.96 148.96L232.14 152.84C230.29 151.79 228.44 151.44 226.72 151.44C224.27 151.44 223.23 152.21 223.23 153.19C223.23 156.4 234.59 153.29 234.59 160.7C234.59 164.19 231.34 166.67 225.71 166.67C222.53 166.67 219.32 165.8 217.57 164.64H217.58Z" fill="white"/>
<path d="M258.04 158.53H243.82C244.34 160.87 246.34 162.3 249.2 162.3C251.19 162.3 252.62 161.71 253.92 160.48L256.82 163.62C255.07 165.61 252.45 166.66 249.06 166.66C242.56 166.66 238.33 162.57 238.33 156.98C238.33 151.39 242.63 147.3 248.36 147.3C254.09 147.3 258.14 151 258.14 157.05C258.14 157.47 258.07 158.06 258.04 158.52V158.53ZM243.75 155.35H253.01C252.63 152.97 250.84 151.44 248.4 151.44C245.96 151.44 244.14 152.94 243.75 155.35Z" fill="white"/>
<path d="M88.9 175.35L86.09 181.83H84.61L81.81 175.35H83.43L85.4 179.98L87.4 175.35H88.89H88.9Z" fill="white"/>
<path d="M91.49 175.35H92.99V181.83H91.49V175.35Z" fill="white"/>
<path d="M100.57 181.83L99.32 180.02H97.94V181.83H96.44V175.35H99.25C100.98 175.35 102.07 176.25 102.07 177.7C102.07 178.67 101.58 179.39 100.74 179.75L102.19 181.83H100.58H100.57ZM99.16 176.57H97.94V178.83H99.16C100.08 178.83 100.54 178.4 100.54 177.7C100.54 177 100.08 176.57 99.16 176.57Z" fill="white"/>
<path d="M106.5 176.57H104.43V175.35H110.08V176.57H108.01V181.83H106.51V176.57H106.5Z" fill="white"/>
<path d="M112.74 178.98V175.35H114.24V178.93C114.24 180.16 114.78 180.67 115.68 180.67C116.58 180.67 117.13 180.16 117.13 178.93V175.35H118.61V178.98C118.61 180.89 117.52 181.94 115.67 181.94C113.82 181.94 112.73 180.88 112.73 178.98H112.74Z" fill="white"/>
<path d="M126.28 180.44H123.27L122.7 181.83H121.16L124.05 175.35H125.53L128.43 181.83H126.85L126.28 180.44ZM125.81 179.3L124.78 176.82L123.75 179.3H125.81Z" fill="white"/>
<path d="M131.02 175.35H132.52V180.61H135.77V181.83H131.02V175.35Z" fill="white"/>
<path d="M148.08 180.63V181.83H143.06V175.35H147.96V176.55H144.55V177.96H147.56V179.13H144.55V180.63H148.08Z" fill="white"/>
<path d="M155.28 181.83L153.71 179.58L152.17 181.83H150.45L152.85 178.53L150.57 175.34H152.27L153.76 177.44L155.22 175.34H156.84L154.58 178.47L157 181.82H155.27L155.28 181.83Z" fill="white"/>
<path d="M165.34 177.7C165.34 179.15 164.26 180.04 162.52 180.04H161.21V181.83H159.71V175.35H162.52C164.25 175.35 165.34 176.25 165.34 177.7ZM163.82 177.7C163.82 176.99 163.36 176.57 162.44 176.57H161.22V178.82H162.44C163.36 178.82 163.82 178.4 163.82 177.7Z" fill="white"/>
<path d="M173.44 180.63V181.83H168.42V175.35H173.32V176.55H169.91V177.96H172.92V179.13H169.91V180.63H173.44Z" fill="white"/>
<path d="M180.68 181.83L179.43 180.02H178.05V181.83H176.55V175.35H179.36C181.09 175.35 182.18 176.25 182.18 177.7C182.18 178.67 181.69 179.39 180.85 179.75L182.31 181.83H180.7H180.68ZM179.27 176.57H178.05V178.83H179.27C180.19 178.83 180.65 178.4 180.65 177.7C180.65 177 180.19 176.57 179.27 176.57Z" fill="white"/>
<path d="M185.27 175.35H186.77V181.83H185.27V175.35Z" fill="white"/>
<path d="M195.24 180.63V181.83H190.22V175.35H195.12V176.55H191.71V177.96H194.72V179.13H191.71V180.63H195.24Z" fill="white"/>
<path d="M204.3 175.35V181.83H203.07L199.84 177.89V181.83H198.36V175.35H199.6L202.82 179.29V175.35H204.3Z" fill="white"/>
<path d="M207.34 178.59C207.34 176.64 208.84 175.24 210.86 175.24C211.98 175.24 212.92 175.65 213.53 176.39L212.57 177.28C212.13 176.78 211.59 176.52 210.94 176.52C209.73 176.52 208.86 177.37 208.86 178.59C208.86 179.81 209.72 180.67 210.94 180.67C211.59 180.67 212.13 180.41 212.57 179.9L213.53 180.79C212.92 181.54 211.98 181.95 210.85 181.95C208.84 181.95 207.34 180.55 207.34 178.6V178.59Z" fill="white"/>
<path d="M221.47 180.63V181.83H216.45V175.35H221.35V176.55H217.94V177.96H220.95V179.13H217.94V180.63H221.47Z" fill="white"/>
<path d="M18.59 167.19C18.59 167.41 18.42 167.6 18.22 167.6C18.02 167.6 17.85 167.41 17.85 167.19V165.33C17.85 165.09 17.85 164.98 17.81 164.98C17.78 164.98 17.71 165.07 17.59 165.21L15.88 167.35C15.75 167.52 15.54 167.61 15.31 167.61C15.08 167.61 14.88 167.52 14.74 167.35L13.03 165.21C12.91 165.06 12.84 164.98 12.81 164.98C12.77 164.98 12.77 165.09 12.77 165.33V167.19C12.77 167.41 12.6 167.6 12.4 167.6C12.2 167.6 12.03 167.41 12.03 167.19V164.69C12.03 164.24 12.29 163.87 12.7 163.87C12.95 163.87 13.14 164.02 13.31 164.22L15.1 166.46C15.15 166.52 15.24 166.6 15.32 166.6C15.4 166.6 15.49 166.52 15.54 166.46L17.32 164.22C17.46 164.01 17.68 163.87 17.93 163.87C18.34 163.87 18.6 164.24 18.6 164.69V167.19H18.59Z" fill="#0075C9"/>
<path d="M20.6 163.87H25.13C25.33 163.87 25.5 164.06 25.5 164.28C25.5 164.5 25.33 164.69 25.13 164.69H20.76C20.05 164.69 19.89 165.32 19.89 165.73C19.89 166.14 20.05 166.77 20.76 166.77H25.13C25.33 166.77 25.5 166.96 25.5 167.18C25.5 167.4 25.33 167.59 25.13 167.59H20.52C19.67 167.59 19.17 166.57 19.17 165.73C19.17 164.89 19.71 163.87 20.6 163.87Z" fill="#0075C9"/>
<path d="M32.64 167.19C32.64 167.41 32.47 167.6 32.27 167.6C32.07 167.6 31.9 167.41 31.9 167.19V165.33C31.9 165.09 31.9 164.98 31.86 164.98C31.83 164.98 31.76 165.07 31.64 165.21L29.93 167.35C29.8 167.52 29.59 167.61 29.36 167.61C29.13 167.61 28.92 167.52 28.79 167.35L27.08 165.21C26.96 165.06 26.89 164.98 26.86 164.98C26.82 164.98 26.82 165.09 26.82 165.33V167.19C26.82 167.41 26.65 167.6 26.45 167.6C26.25 167.6 26.08 167.41 26.08 167.19V164.69C26.08 164.24 26.34 163.87 26.75 163.87C27 163.87 27.19 164.02 27.36 164.22L29.15 166.46C29.2 166.52 29.29 166.6 29.37 166.6C29.45 166.6 29.54 166.52 29.59 166.46L31.37 164.22C31.51 164.01 31.73 163.87 31.98 163.87C32.39 163.87 32.65 164.24 32.65 164.69V167.19H32.64Z" fill="#0075C9"/>
<path d="M34.65 163.87H39.18C39.38 163.87 39.55 164.06 39.55 164.28C39.55 164.5 39.38 164.69 39.18 164.69H34.82C34.11 164.69 33.95 165.32 33.95 165.73C33.95 166.14 34.11 166.77 34.82 166.77H39.18C39.38 166.77 39.55 166.96 39.55 167.18C39.55 167.4 39.38 167.59 39.18 167.59H34.57C33.72 167.59 33.22 166.57 33.22 165.73C33.22 164.89 33.76 163.87 34.65 163.87Z" fill="#0075C9"/>
<path fill-rule="evenodd" clip-rule="evenodd" d="M31.99 162.58H25.87H13.28L19.57 159.72L25.87 156.85L32.17 159.72L38.47 162.58H31.99Z" fill="#E6427A"/>
<path fill-rule="evenodd" clip-rule="evenodd" d="M25.87 144.92L32.17 153.75L38.47 162.58L25.87 156.85V144.92Z" fill="#0075C9"/>
<path fill-rule="evenodd" clip-rule="evenodd" d="M25.87 144.92L19.57 153.75L13.28 162.58L25.87 156.85V144.92Z" fill="#F5A800"/>
<path d="M29.4 158.45C29.72 157.89 29.89 157.25 29.88 156.57C29.84 154.48 28.05 152.82 25.87 152.82V156.85L29.39 158.46L29.4 158.45Z" fill="#7AB2E0"/>
<path d="M22.35 158.45C22.03 157.89 21.86 157.25 21.87 156.57C21.91 154.48 23.7 152.82 25.88 152.82V156.85L22.36 158.46L22.35 158.45Z" fill="#FFD78D"/>
<path d="M29.4 158.45C28.73 159.62 27.44 160.43 25.94 160.46C24.39 160.49 23.03 159.67 22.34 158.45L25.87 156.84L29.4 158.45Z" fill="#F9A7B9"/>
</svg>
