<svg width="10" height="6" viewBox="0 0 10 6" fill="none" xmlns="http://www.w3.org/2000/svg">
<path fill-rule="evenodd" clip-rule="evenodd" d="M0.333187 0.690386C0.335954 0.730721 0.33562 0.740988 0.342487 0.780923C0.357987 0.870727 0.392022 0.957097 0.442024 1.0333C0.467293 1.07184 0.496694 1.10547 0.528062 1.13907L4.52823 5.13924C4.5578 5.16684 4.56454 5.17454 4.59684 5.19905C4.6331 5.22655 4.67221 5.25031 4.71334 5.26988C4.89305 5.35535 5.10629 5.35535 5.286 5.26988C5.32713 5.25031 5.36624 5.22655 5.4025 5.19905C5.43477 5.17454 5.44154 5.16684 5.47107 5.13924L9.47125 1.13907C9.49885 1.1095 9.50658 1.10274 9.53105 1.07047C9.59535 0.985732 9.63875 0.885727 9.65685 0.780923C9.66972 0.706087 9.66972 0.629183 9.65685 0.554347C9.64652 0.494511 9.62799 0.436141 9.60192 0.381306C9.50288 0.17303 9.29744 0.0280237 9.06803 0.00442266C8.97736 -0.00487757 8.88502 0.00462294 8.79815 0.0321908C8.72578 0.0551586 8.65748 0.0905266 8.59701 0.136395C8.56471 0.160896 8.55797 0.168597 8.52841 0.196198L4.99965 3.72495L1.4709 0.196198L1.43763 0.16513C1.4063 0.139629 1.399 0.132362 1.36513 0.110161C1.30166 0.0685258 1.23109 0.0378575 1.15736 0.0198903C1.09835 0.00552273 1.03742 -0.000744343 0.976748 0.00132275C0.746238 0.00918961 0.531395 0.139863 0.418357 0.340871C0.381155 0.40704 0.355388 0.479543 0.342487 0.554347C0.33562 0.594282 0.335954 0.604549 0.333187 0.644884C0.333187 0.660051 0.333187 0.675219 0.333187 0.690386Z" fill="white"/>
</svg>
