<svg width="96" height="117" viewBox="0 0 96 117" fill="none" xmlns="http://www.w3.org/2000/svg">
<path opacity="0.78" fill-rule="evenodd" clip-rule="evenodd" d="M50.36 16.66C50.77 16.66 51.17 16.62 51.58 16.54C51.98 16.46 52.37 16.34 52.75 16.18C53.13 16.02 53.49 15.83 53.83 15.6C54.17 15.37 54.49 15.11 54.77 14.82C55.06 14.53 55.32 14.21 55.55 13.87C55.78 13.53 55.97 13.17 56.13 12.79C56.29 12.41 56.41 12.02 56.49 11.62C56.57 11.22 56.61 10.81 56.61 10.4C56.61 9.99 56.57 9.58 56.49 9.18C56.41 8.78 56.29 8.38 56.14 8C55.98 7.62 55.79 7.26 55.57 6.92C55.34 6.58 55.08 6.26 54.8 5.97C54.51 5.68 54.2 5.42 53.86 5.19C53.52 4.96 53.16 4.77 52.78 4.61C52.4 4.45 52.01 4.33 51.61 4.25C51.21 4.17 50.8 4.13 50.39 4.13C49.98 4.13 49.58 4.17 49.17 4.25C48.77 4.33 48.38 4.45 48 4.6C47.62 4.76 47.26 4.95 46.92 5.18C46.58 5.41 46.26 5.67 45.97 5.96C45.68 6.25 45.42 6.57 45.19 6.91C44.96 7.25 44.77 7.61 44.61 7.99C44.45 8.37 44.33 8.76 44.25 9.16C44.17 9.56 44.13 9.97 44.13 10.38C44.13 10.79 44.17 11.2 44.25 11.6C44.33 12 44.45 12.4 44.6 12.78C44.75 13.16 44.95 13.52 45.18 13.86C45.41 14.2 45.67 14.52 45.96 14.81C46.25 15.1 46.56 15.36 46.9 15.59C47.24 15.82 47.6 16.01 47.98 16.17C48.36 16.33 48.75 16.45 49.15 16.53C49.55 16.61 49.96 16.65 50.37 16.65L50.36 16.66Z" fill="#F9ED32"/>
<path opacity="0.78" fill-rule="evenodd" clip-rule="evenodd" d="M80.56 21.49C82.25 23.46 83.65 25.63 84.76 27.99C85.87 30.35 86.64 32.81 87.08 35.38C88.34 42.81 86.42 49.69 87.77 54.31C88.09 55.35 88.51 56.34 89.04 57.28C88.41 57.65 87.76 57.98 87.09 58.28C86.42 58.57 85.74 58.83 85.04 59.05C84.34 59.27 83.63 59.44 82.91 59.57C82.19 59.7 81.47 59.8 80.74 59.85C80.01 59.9 79.28 59.91 78.55 59.87C77.82 59.84 77.09 59.76 76.37 59.64C75.65 59.52 74.94 59.36 74.23 59.16C73.53 58.96 72.84 58.72 72.16 58.44C71.48 58.16 70.83 57.84 70.19 57.49C69.55 57.13 68.93 56.74 68.34 56.32C67.75 55.9 67.18 55.43 66.63 54.94C66.09 54.45 65.57 53.92 65.09 53.37C64.61 52.82 64.16 52.24 63.74 51.64C63.32 51.04 62.94 50.41 62.6 49.76C62.25 49.11 61.95 48.45 61.68 47.76C61.41 47.08 61.18 46.38 60.99 45.67C60.8 44.96 60.65 44.24 60.54 43.51C60.43 42.78 60.37 42.05 60.34 41.32C60.32 40.59 60.34 39.85 60.39 39.12C60.45 38.39 60.55 37.66 60.69 36.94C60.83 36.22 61.01 35.51 61.24 34.81C61.46 34.11 61.73 33.42 62.03 32.75C62.33 32.08 62.67 31.43 63.05 30.8C63.43 30.17 63.84 29.56 64.28 28.98C64.73 28.4 65.2 27.84 65.71 27.31C66.22 26.78 66.76 26.28 67.32 25.82C67.89 25.35 68.48 24.92 69.09 24.52C69.7 24.12 70.34 23.76 71 23.44C71.66 23.12 72.33 22.83 73.02 22.58C73.71 22.33 74.41 22.13 75.12 21.96C75.83 21.79 76.55 21.67 77.28 21.59C78.01 21.51 78.74 21.47 79.47 21.47C79.83 21.47 80.21 21.48 80.59 21.5L80.56 21.49Z" fill="#662D91"/>
<path opacity="0.78" fill-rule="evenodd" clip-rule="evenodd" d="M87.46 38.65C87.86 44.8 86.62 50.38 87.78 54.33C89.75 61.08 98.49 67.19 94.41 70.67C93.12 71.71 90.9 71.78 89.59 72.8C87.51 74.43 88.93 76.19 89.12 77.46C89.21 78.06 88.66 79.03 86.87 80.21C88.23 81.21 88.1 82.07 87.62 82.85C86.96 83.31 86.28 83.73 85.58 84.12C84.88 84.51 84.17 84.87 83.43 85.2C82.7 85.53 81.95 85.82 81.2 86.08C80.44 86.34 79.67 86.57 78.9 86.76C78.12 86.95 77.34 87.11 76.54 87.23C75.75 87.35 74.95 87.43 74.15 87.48C73.35 87.53 72.55 87.54 71.75 87.51C70.95 87.48 70.15 87.42 69.36 87.33C68.56 87.23 67.78 87.1 66.99 86.93C66.21 86.76 65.43 86.56 64.67 86.32C63.91 86.08 63.15 85.81 62.41 85.5C61.67 85.19 60.95 84.85 60.24 84.48C59.53 84.11 58.84 83.7 58.17 83.26C57.5 82.82 56.85 82.36 56.21 81.86C55.57 81.36 54.97 80.84 54.39 80.29C53.81 79.74 53.25 79.16 52.72 78.56C52.19 77.96 51.68 77.33 51.21 76.68C50.73 76.03 50.29 75.36 49.87 74.68C49.45 73.99 49.07 73.29 48.72 72.56C48.37 71.84 48.05 71.1 47.76 70.35C47.47 69.6 47.22 68.83 47.01 68.06C46.79 67.28 46.61 66.5 46.46 65.71C46.31 64.92 46.2 64.12 46.13 63.32C46.06 62.52 46.02 61.71 46.01 60.91C46.01 60.1 46.04 59.3 46.11 58.5C46.18 57.7 46.29 56.9 46.43 56.11C46.57 55.32 46.75 54.53 46.96 53.76C47.17 52.98 47.42 52.22 47.7 51.46C47.98 50.71 48.29 49.97 48.64 49.24C48.99 48.51 49.37 47.81 49.78 47.11C50.19 46.42 50.63 45.75 51.1 45.1C51.57 44.45 52.07 43.82 52.6 43.21C53.13 42.6 53.68 42.02 54.26 41.47C54.84 40.91 55.44 40.39 56.07 39.89C56.7 39.39 57.35 38.92 58.02 38.48C58.69 38.04 59.38 37.63 60.08 37.25C60.79 36.87 61.51 36.52 62.25 36.21C62.99 35.9 63.74 35.62 64.5 35.37C65.26 35.12 66.04 34.91 66.82 34.74C67.6 34.57 68.39 34.43 69.18 34.32C69.97 34.22 70.77 34.15 71.57 34.12C72.37 34.09 73.17 34.09 73.97 34.14C74.77 34.19 75.57 34.26 76.36 34.37C77.15 34.48 77.94 34.63 78.72 34.82C79.5 35.01 80.27 35.23 81.03 35.48C81.79 35.74 82.54 36.03 83.27 36.35C84 36.67 84.72 37.03 85.42 37.42C86.12 37.81 86.8 38.23 87.47 38.68V38.66L87.46 38.65Z" fill="#92278F"/>
<path opacity="0.78" fill-rule="evenodd" clip-rule="evenodd" d="M81.77 97.69C71.67 101.82 58.16 87.96 56.34 116.23C49.78 111.9 42.82 108.34 35.47 105.55C35.17 105.1 34.88 104.65 34.6 104.18C34.33 103.71 34.07 103.24 33.82 102.76C33.58 102.28 33.35 101.79 33.13 101.29C32.91 100.79 32.72 100.29 32.53 99.78C32.35 99.27 32.18 98.76 32.03 98.24C31.88 97.72 31.74 97.2 31.63 96.67C31.51 96.14 31.41 95.61 31.32 95.08C31.23 94.55 31.17 94.01 31.11 93.47C31.05 92.93 31.02 92.39 31 91.85C30.98 91.31 30.98 90.77 31 90.23C31.02 89.69 31.05 89.15 31.1 88.61C31.15 88.07 31.21 87.53 31.3 87C31.38 86.47 31.48 85.93 31.6 85.4C31.72 84.87 31.85 84.35 31.99 83.83C32.14 83.31 32.3 82.79 32.48 82.28C32.66 81.77 32.86 81.27 33.07 80.77C33.28 80.27 33.51 79.78 33.75 79.3C33.99 78.82 34.25 78.34 34.52 77.87C34.79 77.4 35.08 76.94 35.38 76.49C35.68 76.04 35.99 75.6 36.32 75.17C36.65 74.74 36.99 74.32 37.34 73.91C37.69 73.5 38.06 73.1 38.44 72.72C38.82 72.33 39.21 71.96 39.61 71.6C40.01 71.24 40.42 70.89 40.85 70.56C41.27 70.22 41.71 69.9 42.15 69.6C42.59 69.29 43.04 69 43.51 68.72C43.97 68.44 44.44 68.18 44.92 67.93C45.4 67.68 45.88 67.45 46.37 67.23C46.86 67.01 47.36 66.81 47.87 66.62C48.37 66.43 48.89 66.26 49.4 66.1C49.92 65.94 50.44 65.8 50.96 65.68C51.48 65.56 52.01 65.45 52.54 65.36C53.07 65.27 53.6 65.2 54.14 65.14C54.68 65.08 55.21 65.04 55.75 65.02C56.29 65 56.83 64.99 57.36 65C57.9 65.01 58.44 65.04 58.97 65.08C59.51 65.12 60.04 65.19 60.57 65.26C61.1 65.34 61.63 65.43 62.16 65.54C62.69 65.65 63.21 65.78 63.73 65.92C64.25 66.06 64.76 66.23 65.27 66.4C65.78 66.58 66.28 66.77 66.78 66.98C67.28 67.19 67.77 67.41 68.25 67.65C68.73 67.89 69.21 68.14 69.68 68.41C70.15 68.68 70.61 68.96 71.05 69.26C71.5 69.56 71.94 69.87 72.37 70.2C72.8 70.53 73.22 70.86 73.63 71.22C74.04 71.57 74.44 71.94 74.82 72.31C75.21 72.69 75.58 73.08 75.94 73.48C76.3 73.88 76.65 74.29 76.99 74.71C77.33 75.13 77.65 75.57 77.96 76.01C78.27 76.45 78.57 76.9 78.85 77.37C79.13 77.83 79.4 78.3 79.65 78.78C79.9 79.26 80.14 79.74 80.36 80.24C80.58 80.73 80.79 81.23 80.98 81.74C81.17 82.25 81.35 82.76 81.51 83.27C81.67 83.79 81.81 84.31 81.94 84.83C82.07 85.36 82.18 85.89 82.27 86.42C82.36 86.95 82.44 87.49 82.5 88.03C82.56 88.57 82.6 89.11 82.63 89.65C82.66 90.19 82.67 90.73 82.66 91.27C82.65 91.81 82.63 92.35 82.59 92.89C82.55 93.43 82.49 93.97 82.42 94.5C82.35 95.04 82.26 95.57 82.15 96.1C82.04 96.63 81.92 97.16 81.78 97.68L81.77 97.69Z" fill="#007FC6"/>
<path opacity="0.78" fill-rule="evenodd" clip-rule="evenodd" d="M66.94 97.84C61.61 98.07 57.3 101.15 56.33 116.24C49.8 111.93 42.89 108.39 35.59 105.61C35.61 104.69 35.71 103.78 35.88 102.88C36.05 101.98 36.29 101.1 36.6 100.24C36.91 99.38 37.29 98.55 37.74 97.75C38.19 96.95 38.7 96.19 39.27 95.48C39.84 94.77 40.47 94.1 41.15 93.49C41.83 92.88 42.55 92.33 43.32 91.83C44.09 91.34 44.89 90.91 45.73 90.55C46.57 90.19 47.43 89.9 48.32 89.68C49.21 89.46 50.1 89.32 51.01 89.24C51.92 89.17 52.83 89.17 53.74 89.24C54.65 89.32 55.55 89.47 56.43 89.69C57.31 89.92 58.17 90.21 59.01 90.58C59.85 90.95 60.65 91.38 61.41 91.88C62.18 92.38 62.9 92.94 63.57 93.55C64.24 94.16 64.87 94.83 65.43 95.55C66 96.27 66.5 97.03 66.94 97.83V97.84Z" fill="#01A6E6"/>
<path opacity="0.78" fill-rule="evenodd" clip-rule="evenodd" d="M91.34 71.93C90.71 72.11 90.12 72.4 89.58 72.78C87.5 74.41 88.92 76.17 89.11 77.44C89.2 78.04 88.65 79.01 86.86 80.19C88.94 81.73 87.54 82.91 86.7 84.04C82.82 86.85 88.22 92.95 81.81 97.68C75.34 100.36 67.48 95.63 62.17 99.26C62.09 98.77 62.02 98.28 61.96 97.79C61.91 97.3 61.87 96.8 61.84 96.31C61.82 95.82 61.81 95.32 61.82 94.83C61.82 94.34 61.85 93.84 61.89 93.35C61.93 92.86 61.98 92.36 62.05 91.87C62.12 91.38 62.2 90.89 62.3 90.41C62.4 89.92 62.51 89.44 62.64 88.97C62.77 88.49 62.91 88.02 63.07 87.55C63.23 87.08 63.4 86.62 63.58 86.16C63.77 85.7 63.96 85.25 64.18 84.8C64.39 84.35 64.62 83.91 64.86 83.48C65.1 83.05 65.35 82.62 65.62 82.21C65.89 81.79 66.17 81.39 66.46 80.99C66.75 80.59 67.06 80.2 67.37 79.82C67.69 79.44 68.01 79.07 68.35 78.71C68.69 78.35 69.04 78 69.4 77.66C69.76 77.32 70.13 77 70.51 76.68C70.89 76.37 71.28 76.06 71.68 75.77C72.08 75.48 72.49 75.2 72.9 74.94C73.32 74.68 73.74 74.42 74.17 74.19C74.6 73.95 75.04 73.73 75.49 73.52C75.94 73.31 76.39 73.11 76.84 72.93C77.3 72.75 77.76 72.58 78.23 72.42C78.7 72.27 79.17 72.13 79.65 72C80.13 71.87 80.61 71.77 81.09 71.67C81.57 71.58 82.06 71.5 82.55 71.43C83.04 71.37 83.53 71.32 84.02 71.28C84.51 71.25 85 71.23 85.5 71.22C86 71.21 86.48 71.22 86.98 71.26C87.47 71.29 87.96 71.33 88.45 71.39C88.94 71.45 89.43 71.52 89.91 71.61C90.39 71.7 90.88 71.8 91.35 71.92L91.34 71.93Z" fill="#2063B2"/>
<path opacity="0.78" fill-rule="evenodd" clip-rule="evenodd" d="M16.25 72.23C16.86 72.23 17.46 72.17 18.05 72.05C18.64 71.93 19.22 71.76 19.78 71.52C20.34 71.29 20.87 71 21.38 70.66C21.88 70.32 22.35 69.94 22.78 69.51C23.21 69.08 23.59 68.61 23.93 68.1C24.27 67.59 24.55 67.06 24.78 66.5C25.01 65.94 25.19 65.36 25.31 64.76C25.43 64.16 25.49 63.56 25.49 62.95C25.49 62.34 25.43 61.74 25.31 61.14C25.19 60.54 25.02 59.96 24.78 59.4C24.55 58.84 24.26 58.3 23.93 57.79C23.59 57.28 23.21 56.81 22.78 56.38C22.35 55.95 21.88 55.56 21.38 55.23C20.88 54.9 20.34 54.61 19.78 54.37C19.22 54.14 18.64 53.96 18.05 53.84C17.46 53.72 16.85 53.66 16.25 53.66C15.65 53.66 15.04 53.72 14.45 53.84C13.86 53.96 13.28 54.14 12.72 54.37C12.16 54.6 11.63 54.89 11.12 55.23C10.62 55.57 10.15 55.95 9.72 56.38C9.29 56.81 8.91 57.28 8.57 57.79C8.23 58.3 7.95 58.83 7.72 59.4C7.49 59.96 7.31 60.54 7.2 61.14C7.08 61.74 7.02 62.34 7.02 62.95C7.02 63.56 7.08 64.16 7.2 64.76C7.32 65.36 7.49 65.94 7.73 66.5C7.96 67.06 8.25 67.6 8.58 68.1C8.92 68.61 9.3 69.07 9.73 69.5C10.16 69.93 10.62 70.32 11.13 70.65C11.63 70.99 12.16 71.27 12.72 71.51C13.28 71.74 13.86 71.92 14.45 72.04C15.04 72.16 15.64 72.22 16.25 72.22V72.23Z" fill="#12BCBC"/>
<path opacity="0.78" fill-rule="evenodd" clip-rule="evenodd" d="M35.59 85.15C36.14 85.15 36.69 85.1 37.23 84.99C37.77 84.88 38.3 84.72 38.81 84.51C39.32 84.3 39.81 84.04 40.27 83.73C40.73 83.42 41.16 83.07 41.55 82.68C41.94 82.29 42.29 81.86 42.6 81.4C42.91 80.94 43.17 80.45 43.38 79.94C43.59 79.43 43.75 78.9 43.86 78.35C43.97 77.8 44.02 77.25 44.03 76.7C44.03 76.14 43.98 75.59 43.87 75.05C43.76 74.5 43.6 73.97 43.39 73.46C43.18 72.95 42.92 72.46 42.61 71.99C42.3 71.53 41.95 71.1 41.56 70.7C41.17 70.31 40.74 69.95 40.28 69.64C39.82 69.33 39.34 69.07 38.82 68.86C38.31 68.65 37.78 68.49 37.24 68.38C36.7 68.27 36.15 68.22 35.6 68.22C35.05 68.22 34.5 68.27 33.96 68.38C33.42 68.49 32.89 68.65 32.38 68.86C31.87 69.07 31.38 69.33 30.92 69.64C30.46 69.95 30.03 70.3 29.64 70.69C29.25 71.08 28.9 71.51 28.59 71.97C28.28 72.43 28.02 72.92 27.81 73.43C27.6 73.94 27.44 74.47 27.33 75.02C27.22 75.57 27.17 76.12 27.17 76.67C27.17 77.22 27.23 77.77 27.33 78.32C27.44 78.86 27.6 79.39 27.81 79.9C28.02 80.41 28.28 80.9 28.59 81.36C28.9 81.82 29.24 82.25 29.63 82.64C30.02 83.03 30.44 83.38 30.9 83.69C31.36 84 31.84 84.26 32.35 84.47C32.86 84.68 33.38 84.85 33.92 84.96C34.46 85.07 35.01 85.13 35.56 85.13L35.59 85.15Z" fill="#00B9F1"/>
<path opacity="0.78" fill-rule="evenodd" clip-rule="evenodd" d="M14.92 49.64C15.34 49.64 15.77 49.6 16.18 49.51C16.59 49.42 17 49.3 17.39 49.14C17.78 48.98 18.16 48.78 18.51 48.54C18.86 48.3 19.19 48.03 19.49 47.73C19.79 47.43 20.06 47.1 20.29 46.74C20.53 46.38 20.73 46.01 20.89 45.62C21.05 45.23 21.18 44.82 21.26 44.4C21.34 43.98 21.38 43.56 21.38 43.13C21.38 42.7 21.34 42.28 21.26 41.86C21.18 41.44 21.05 41.03 20.89 40.64C20.73 40.25 20.53 39.87 20.29 39.52C20.05 39.16 19.79 38.84 19.49 38.53C19.19 38.23 18.86 37.96 18.51 37.72C18.16 37.48 17.78 37.28 17.39 37.12C17 36.96 16.59 36.83 16.18 36.75C15.76 36.67 15.34 36.63 14.92 36.63C14.5 36.63 14.07 36.67 13.66 36.76C13.24 36.84 12.84 36.97 12.45 37.13C12.06 37.29 11.68 37.49 11.33 37.73C10.98 37.97 10.65 38.24 10.35 38.54C10.05 38.84 9.78 39.17 9.55 39.53C9.31 39.89 9.12 40.26 8.95 40.65C8.79 41.04 8.67 41.45 8.58 41.87C8.5 42.29 8.46 42.71 8.46 43.14C8.46 43.57 8.5 43.99 8.59 44.41C8.68 44.83 8.8 45.23 8.96 45.63C9.12 46.02 9.32 46.4 9.56 46.75C9.8 47.1 10.06 47.43 10.36 47.73C10.66 48.03 10.99 48.3 11.34 48.54C11.69 48.78 12.07 48.98 12.46 49.14C12.85 49.3 13.26 49.43 13.67 49.51C14.08 49.59 14.51 49.64 14.93 49.64H14.92Z" fill="#8DC63F"/>
<path opacity="0.78" d="M11.7 26.98C11.7 27.35 11.66 27.72 11.59 28.08C11.52 28.44 11.41 28.79 11.27 29.14C11.13 29.48 10.96 29.81 10.75 30.11C10.55 30.42 10.31 30.7 10.05 30.96C9.79 31.22 9.51 31.45 9.2 31.66C8.89 31.87 8.57 32.04 8.23 32.18C7.89 32.32 7.54 32.43 7.18 32.5C6.82 32.57 6.45 32.61 6.09 32.61C5.73 32.61 5.36 32.57 5 32.5C4.64 32.43 4.29 32.32 3.95 32.18C3.61 32.04 3.29 31.87 2.98 31.66C2.67 31.45 2.39 31.22 2.13 30.96C1.87 30.7 1.64 30.41 1.43 30.11C1.23 29.8 1.05 29.48 0.910004 29.14C0.770004 28.8 0.659996 28.45 0.589996 28.08C0.519996 27.72 0.480003 27.35 0.480003 26.98C0.480003 26.61 0.519996 26.24 0.589996 25.88C0.659996 25.52 0.770004 25.17 0.910004 24.82C1.05 24.48 1.22 24.15 1.43 23.85C1.64 23.55 1.87 23.26 2.13 23C2.39 22.74 2.67 22.51 2.98 22.3C3.29 22.09 3.61 21.92 3.95 21.78C4.29 21.64 4.64 21.53 5 21.46C5.36 21.39 5.73 21.35 6.09 21.35C6.45 21.35 6.82 21.39 7.18 21.46C7.54 21.53 7.89 21.64 8.23 21.78C8.57 21.92 8.89 22.09 9.2 22.3C9.51 22.51 9.79 22.74 10.05 23C10.31 23.26 10.54 23.55 10.75 23.85C10.95 24.16 11.13 24.48 11.27 24.82C11.41 25.16 11.52 25.51 11.59 25.88C11.66 26.24 11.7 26.61 11.7 26.98Z" fill="#FFD900"/>
<path opacity="0.78" fill-rule="evenodd" clip-rule="evenodd" d="M17.93 16.66C18.27 16.66 18.61 16.63 18.95 16.56C19.29 16.49 19.61 16.39 19.93 16.26C20.25 16.13 20.55 15.97 20.83 15.77C21.12 15.58 21.38 15.36 21.62 15.12C21.86 14.88 22.08 14.61 22.27 14.32C22.46 14.03 22.62 13.73 22.75 13.41C22.88 13.09 22.98 12.76 23.05 12.42C23.12 12.08 23.15 11.74 23.15 11.39C23.15 11.04 23.12 10.7 23.05 10.36C22.98 10.02 22.88 9.69 22.75 9.37C22.62 9.05 22.46 8.75 22.27 8.46C22.08 8.17 21.86 7.91 21.62 7.66C21.38 7.41 21.11 7.2 20.83 7.01C20.54 6.82 20.24 6.66 19.93 6.52C19.61 6.39 19.29 6.29 18.95 6.22C18.61 6.15 18.27 6.12 17.93 6.12C17.59 6.12 17.25 6.15 16.91 6.22C16.57 6.29 16.25 6.39 15.93 6.52C15.61 6.65 15.31 6.81 15.03 7.01C14.74 7.2 14.48 7.42 14.24 7.66C14 7.9 13.78 8.17 13.59 8.46C13.4 8.75 13.24 9.05 13.11 9.37C12.98 9.69 12.88 10.02 12.81 10.36C12.74 10.7 12.71 11.04 12.71 11.39C12.71 11.73 12.74 12.08 12.81 12.41C12.88 12.74 12.98 13.08 13.11 13.4C13.24 13.72 13.4 14.02 13.59 14.31C13.78 14.6 14 14.86 14.24 15.11C14.48 15.35 14.75 15.57 15.03 15.76C15.32 15.95 15.62 16.11 15.93 16.25C16.24 16.39 16.57 16.48 16.91 16.55C17.25 16.62 17.59 16.65 17.93 16.65V16.66Z" fill="#009444"/>
<path opacity="0.78" fill-rule="evenodd" clip-rule="evenodd" d="M19.71 29.77C20.17 29.77 20.61 29.68 21.03 29.51C21.45 29.33 21.83 29.08 22.15 28.76C22.47 28.43 22.72 28.06 22.9 27.63C23.08 27.2 23.16 26.76 23.16 26.3C23.16 25.84 23.07 25.4 22.9 24.97C22.72 24.54 22.48 24.17 22.15 23.84C21.83 23.51 21.45 23.26 21.03 23.09C20.61 22.91 20.17 22.83 19.71 22.83C19.25 22.83 18.81 22.92 18.39 23.09C17.97 23.27 17.59 23.52 17.27 23.84C16.95 24.17 16.7 24.54 16.52 24.97C16.34 25.4 16.26 25.84 16.26 26.3C16.26 26.76 16.35 27.2 16.53 27.63C16.71 28.06 16.96 28.43 17.28 28.76C17.6 29.09 17.98 29.34 18.4 29.51C18.82 29.69 19.26 29.78 19.72 29.78L19.71 29.77Z" fill="#56BA48"/>
<path opacity="0.78" fill-rule="evenodd" clip-rule="evenodd" d="M26.91 7.68C27.37 7.68 27.81 7.59 28.23 7.42C28.65 7.24 29.03 6.99 29.35 6.67C29.67 6.34 29.92 5.97 30.1 5.54C30.28 5.11 30.36 4.67 30.36 4.21C30.36 3.75 30.27 3.31 30.1 2.88C29.92 2.45 29.68 2.08 29.35 1.75C29.03 1.42 28.65 1.17 28.23 0.999998C27.81 0.819998 27.37 0.739998 26.91 0.739998C26.45 0.739998 26.01 0.829998 25.59 0.999998C25.17 1.18 24.79 1.43 24.47 1.75C24.15 2.08 23.9 2.45 23.72 2.88C23.54 3.31 23.46 3.75 23.46 4.21C23.46 4.67 23.55 5.11 23.73 5.54C23.91 5.96 24.16 6.34 24.48 6.67C24.8 7 25.18 7.25 25.6 7.42C26.02 7.6 26.46 7.69 26.92 7.69L26.91 7.68Z" fill="#FBAD17"/>
<path opacity="0.78" fill-rule="evenodd" clip-rule="evenodd" d="M5.69 15.42C6.04 15.42 6.37 15.35 6.69 15.22C7.01 15.09 7.29 14.89 7.54 14.65C7.78 14.4 7.97 14.12 8.1 13.8C8.23 13.48 8.3 13.14 8.3 12.79C8.3 12.44 8.23 12.11 8.1 11.79C7.97 11.47 7.78 11.19 7.53 10.94C7.28 10.69 7 10.51 6.68 10.37C6.36 10.24 6.03 10.17 5.68 10.17C5.33 10.17 5 10.24 4.68 10.37C4.36 10.5 4.08 10.69 3.83 10.94C3.59 11.19 3.4 11.47 3.26 11.79C3.13 12.11 3.06 12.45 3.06 12.8C3.06 13.15 3.13 13.49 3.26 13.81C3.39 14.13 3.58 14.42 3.83 14.66C4.08 14.9 4.36 15.1 4.68 15.23C5 15.36 5.34 15.43 5.68 15.43L5.69 15.42Z" fill="#F15C22"/>
<path opacity="0.78" d="M67.85 42.24C67.85 42.96 67.81 43.68 67.74 44.39C67.67 45.11 67.56 45.82 67.43 46.52C67.29 47.23 67.12 47.92 66.91 48.61C66.7 49.3 66.46 49.98 66.19 50.64C65.92 51.3 65.61 51.95 65.27 52.59C64.93 53.22 64.57 53.84 64.17 54.44C63.77 55.04 63.35 55.62 62.89 56.17C62.43 56.72 61.96 57.26 61.45 57.77C60.94 58.28 60.41 58.76 59.86 59.22C59.31 59.68 58.73 60.1 58.14 60.5C57.54 60.9 56.93 61.27 56.3 61.61C55.67 61.95 55.02 62.26 54.36 62.53C53.7 62.81 53.03 63.05 52.34 63.26C51.66 63.47 50.96 63.64 50.26 63.78C49.56 63.92 48.85 64.03 48.14 64.1C47.43 64.17 46.71 64.21 46 64.21C45.29 64.21 44.57 64.17 43.86 64.1C43.15 64.03 42.44 63.92 41.74 63.78C41.04 63.64 40.34 63.47 39.66 63.26C38.98 63.05 38.3 62.81 37.64 62.53C36.98 62.25 36.33 61.95 35.7 61.61C35.07 61.27 34.46 60.9 33.86 60.5C33.26 60.1 32.69 59.67 32.14 59.22C31.59 58.76 31.06 58.28 30.55 57.77C30.04 57.26 29.56 56.73 29.11 56.17C28.66 55.61 28.23 55.04 27.83 54.44C27.43 53.84 27.06 53.23 26.73 52.59C26.39 51.96 26.09 51.31 25.81 50.64C25.54 49.98 25.3 49.3 25.09 48.61C24.88 47.92 24.71 47.22 24.57 46.52C24.43 45.82 24.33 45.1 24.26 44.39C24.19 43.67 24.15 42.96 24.15 42.24C24.15 41.52 24.19 40.8 24.26 40.09C24.33 39.37 24.44 38.66 24.57 37.96C24.7 37.26 24.88 36.56 25.09 35.87C25.3 35.18 25.54 34.5 25.81 33.84C26.08 33.18 26.39 32.53 26.73 31.89C27.07 31.26 27.43 30.64 27.83 30.04C28.23 29.44 28.65 28.86 29.11 28.31C29.56 27.75 30.04 27.22 30.55 26.71C31.06 26.2 31.59 25.72 32.14 25.26C32.69 24.8 33.27 24.38 33.86 23.98C34.45 23.58 35.07 23.21 35.7 22.87C36.33 22.53 36.98 22.22 37.64 21.95C38.3 21.67 38.97 21.43 39.66 21.22C40.34 21.01 41.04 20.84 41.74 20.7C42.44 20.56 43.15 20.45 43.86 20.38C44.57 20.31 45.29 20.27 46 20.27C46.71 20.27 47.43 20.31 48.14 20.38C48.85 20.45 49.56 20.56 50.26 20.7C50.96 20.84 51.66 21.01 52.34 21.22C53.02 21.43 53.7 21.67 54.36 21.95C55.02 22.23 55.67 22.53 56.3 22.87C56.93 23.21 57.54 23.58 58.14 23.98C58.74 24.38 59.31 24.81 59.86 25.26C60.41 25.71 60.94 26.2 61.45 26.71C61.96 27.22 62.44 27.75 62.89 28.31C63.34 28.87 63.77 29.44 64.17 30.04C64.57 30.64 64.94 31.25 65.27 31.89C65.61 32.52 65.91 33.17 66.19 33.84C66.46 34.5 66.7 35.18 66.91 35.87C67.12 36.56 67.29 37.26 67.43 37.96C67.57 38.67 67.67 39.38 67.74 40.09C67.81 40.81 67.85 41.52 67.85 42.24Z" fill="#FBAD17"/>
<path opacity="0.78" fill-rule="evenodd" clip-rule="evenodd" d="M58.07 8.99C68.54 11.16 77.32 16.43 82.49 24.02C82.4 24.66 82.27 25.3 82.11 25.93C81.94 26.56 81.74 27.17 81.49 27.77C81.25 28.37 80.97 28.96 80.65 29.52C80.33 30.08 79.99 30.63 79.6 31.15C79.22 31.67 78.8 32.17 78.36 32.64C77.92 33.11 77.45 33.55 76.95 33.97C76.45 34.38 75.93 34.76 75.38 35.11C74.83 35.46 74.27 35.77 73.69 36.05C73.11 36.33 72.51 36.57 71.89 36.77C71.28 36.97 70.65 37.14 70.02 37.26C69.39 37.39 68.75 37.47 68.1 37.52C67.46 37.57 66.81 37.57 66.17 37.54C65.53 37.51 64.88 37.43 64.25 37.32C63.61 37.21 62.99 37.05 62.37 36.86C61.75 36.67 61.15 36.44 60.56 36.17C59.97 35.9 59.4 35.6 58.85 35.26C58.3 34.92 57.77 34.55 57.27 34.14C56.77 33.74 56.29 33.3 55.84 32.84C55.39 32.38 54.97 31.88 54.58 31.37C54.19 30.85 53.83 30.31 53.51 29.75C53.19 29.19 52.9 28.61 52.64 28.01C52.39 27.41 52.17 26.8 51.99 26.18C51.81 25.56 51.67 24.92 51.58 24.28C51.48 23.64 51.42 22.99 51.4 22.34C51.38 21.69 51.4 21.04 51.46 20.4C51.52 19.75 51.62 19.11 51.76 18.48C51.9 17.85 52.08 17.22 52.29 16.61C52.51 16 52.76 15.4 53.05 14.82C53.34 14.24 53.66 13.68 54.02 13.14C54.38 12.6 54.77 12.08 55.19 11.59C55.61 11.1 56.06 10.64 56.54 10.2C57.02 9.77 57.52 9.36 58.05 8.99H58.07Z" fill="#EC008B"/>
<path opacity="0.78" fill-rule="evenodd" clip-rule="evenodd" d="M38.64 32.62C39.5 32.62 40.35 32.54 41.19 32.37C42.03 32.2 42.85 31.95 43.65 31.62C44.44 31.29 45.2 30.88 45.91 30.4C46.62 29.92 47.29 29.37 47.89 28.76C48.5 28.15 49.04 27.48 49.52 26.77C50 26.05 50.4 25.29 50.73 24.5C51.06 23.71 51.31 22.88 51.48 22.03C51.65 21.18 51.73 20.33 51.73 19.46C51.73 18.6 51.65 17.74 51.48 16.89C51.31 16.04 51.06 15.22 50.74 14.42C50.41 13.62 50.01 12.86 49.53 12.14C49.05 11.42 48.51 10.76 47.9 10.15C47.29 9.54 46.63 8.99 45.92 8.51C45.21 8.03 44.45 7.62 43.66 7.29C42.87 6.96 42.05 6.71 41.2 6.54C40.36 6.37 39.51 6.29 38.65 6.29C37.79 6.29 36.94 6.37 36.1 6.54C35.26 6.71 34.44 6.96 33.64 7.29C32.84 7.62 32.09 8.03 31.38 8.51C30.67 8.99 30 9.54 29.4 10.15C28.79 10.76 28.25 11.43 27.77 12.14C27.29 12.86 26.89 13.62 26.56 14.41C26.23 15.21 25.98 16.03 25.82 16.88C25.65 17.73 25.57 18.58 25.57 19.45C25.57 20.31 25.66 21.17 25.83 22.01C26 22.86 26.25 23.68 26.58 24.48C26.91 25.28 27.31 26.03 27.79 26.75C28.27 27.47 28.81 28.13 29.42 28.74C30.03 29.35 30.69 29.9 31.4 30.38C32.11 30.86 32.87 31.27 33.66 31.6C34.45 31.93 35.27 32.18 36.11 32.35C36.95 32.52 37.8 32.61 38.66 32.61L38.64 32.62Z" fill="#56BA48"/>
</svg>
