<svg width="8" height="14" viewBox="0 0 8 14" fill="none" xmlns="http://www.w3.org/2000/svg">
<path fill-rule="evenodd" clip-rule="evenodd" d="M1.03411 14C1.09462 13.9958 1.11002 13.9963 1.16992 13.986C1.30462 13.9628 1.43418 13.9117 1.54849 13.8367C1.60629 13.7988 1.65674 13.7547 1.70714 13.7077L7.7074 7.70741C7.7488 7.66305 7.76035 7.65295 7.7971 7.6045C7.83835 7.5501 7.87401 7.49145 7.90336 7.42974C8.03156 7.16018 8.03156 6.84032 7.90336 6.57076C7.87401 6.50905 7.83835 6.4504 7.7971 6.396C7.76035 6.3476 7.7488 6.33745 7.7074 6.29314L1.70714 0.292888C1.66279 0.251486 1.65264 0.239885 1.60424 0.203184C1.47713 0.10673 1.32713 0.0416268 1.16992 0.0144756C1.05766 -0.00482521 0.942309 -0.00482521 0.830054 0.0144756C0.740301 0.0299763 0.652747 0.0577775 0.570493 0.0968791C0.25808 0.245436 0.0405703 0.553599 0.00516891 0.897713C-0.00878143 1.03372 0.00546932 1.17223 0.0468211 1.30253C0.0812726 1.41109 0.134325 1.51354 0.203127 1.60424C0.239879 1.6527 0.25143 1.6628 0.292831 1.70715L5.58596 7.00028L0.292831 12.2934L0.24623 12.3433C0.207978 12.3903 0.197077 12.4013 0.163776 12.4521C0.101323 12.5473 0.0553212 12.6531 0.0283699 12.7637C0.00681877 12.8522 -0.0025816 12.9436 0.000518799 13.0346C0.0123191 13.3804 0.208328 13.7027 0.509841 13.8722C0.609095 13.928 0.717849 13.9667 0.830054 13.986C0.889957 13.9963 0.905358 13.9958 0.96586 14C0.988611 14 1.01136 14 1.03411 14Z" fill="#02B3F0"/>
</svg>
