<svg width="14" height="14" viewBox="0 0 14 14" fill="none" xmlns="http://www.w3.org/2000/svg">
<path fill-rule="evenodd" clip-rule="evenodd" d="M5.66666 1.66666C3.45752 1.66666 1.66666 3.45752 1.66666 5.66666C1.66666 7.8758 3.45752 9.66666 5.66666 9.66666C7.8758 9.66666 9.66666 7.8758 9.66666 5.66666C9.66666 3.45752 7.8758 1.66666 5.66666 1.66666ZM0.333328 5.66666C0.333328 2.72114 2.72114 0.333328 5.66666 0.333328C8.61218 0.333328 11 2.72114 11 5.66666C11 6.89914 10.5819 8.03397 9.8799 8.93709L13.4714 12.5286C13.7317 12.7889 13.7317 13.211 13.4714 13.4714C13.211 13.7317 12.7889 13.7317 12.5286 13.4714L8.93709 9.8799C8.03397 10.5819 6.89914 11 5.66666 11C2.72114 11 0.333328 8.61218 0.333328 5.66666Z" fill="black"/>
</svg>
