<svg width="24" height="24" viewBox="0 0 24 24" fill="none" xmlns="http://www.w3.org/2000/svg">
<path fill-rule="evenodd" clip-rule="evenodd" d="M8 0C3.58172 0 0 3.58172 0 8V16C0 20.4183 3.58172 24 8 24H16C20.4183 24 24 20.4183 24 16V8C24 3.58172 20.4183 0 16 0H8Z" fill="#F6F6F6"/>
<path fill-rule="evenodd" clip-rule="evenodd" d="M16 1H8C4.13401 1 1 4.13401 1 8V16C1 19.866 4.13401 23 8 23H16C19.866 23 23 19.866 23 16V8C23 4.13401 19.866 1 16 1ZM8 0C3.58172 0 0 3.58172 0 8V16C0 20.4183 3.58172 24 8 24H16C20.4183 24 24 20.4183 24 16V8C24 3.58172 20.4183 0 16 0H8Z" fill="#D4D4D4"/>
</svg>
